<svg width="51" height="51" viewBox="0 0 51 51" fill="none" xmlns="http://www.w3.org/2000/svg">
<g clip-path="url(#clip0_269_751)">
<circle cx="25.4873" cy="25.8792" r="23.9714" stroke="black" stroke-width="1.8679"/>
<path d="M25.479 41.3987C21.2268 41.3987 20.7255 41.3763 19.066 41.3037C17.772 41.2611 16.4947 40.9981 15.2891 40.5258C14.2575 40.1243 13.3206 39.5127 12.5379 38.7298C11.7553 37.9468 11.144 37.0097 10.7429 35.9779C10.2889 34.768 10.0439 33.4896 10.0187 32.1975C9.92187 30.5416 9.92188 29.9988 9.92188 25.7793C9.92188 21.5149 9.94435 21.0171 10.0187 19.3663C10.0445 18.076 10.2894 16.7994 10.7429 15.5911C11.1436 14.558 11.7553 13.6198 12.5389 12.8364C13.3226 12.0531 14.261 11.4417 15.2943 11.0415C16.5019 10.5855 17.7788 10.34 19.0695 10.3155C20.7203 10.2222 21.2631 10.2222 25.479 10.2222C29.7659 10.2222 30.2586 10.2446 31.8921 10.3155C33.185 10.3397 34.4676 10.5852 35.6776 11.0415C36.7106 11.4422 37.6488 12.0537 38.4324 12.837C39.216 13.6203 39.8279 14.5583 40.229 15.5911C40.6905 16.8184 40.9377 18.1148 40.9567 19.4234C41.0535 21.0793 41.0535 21.6204 41.0535 25.8381C41.0535 30.0558 41.0293 30.609 40.9567 32.2459C40.9309 33.5392 40.6854 34.8188 40.2307 36.0298C39.8286 37.0623 39.2162 37.9999 38.4324 38.7832C37.6486 39.5664 36.7105 40.1781 35.6776 40.5794C34.4676 41.0323 33.1902 41.2777 31.899 41.3037C30.2482 41.3987 29.7071 41.3987 25.479 41.3987ZM25.4203 12.9585C21.1922 12.9585 20.7531 12.9792 19.1023 13.0536C18.1164 13.0665 17.1401 13.2483 16.2156 13.5912C15.5414 13.8496 14.9287 14.2465 14.4172 14.7562C13.9057 15.2659 13.5067 15.8771 13.2459 16.5505C12.9002 17.4839 12.7187 18.4709 12.7083 19.4666C12.6167 21.1416 12.6167 21.5806 12.6167 25.7793C12.6167 29.9279 12.6323 30.4309 12.7083 32.0956C12.7239 33.0808 12.9054 34.0575 13.2459 34.9823C13.7749 36.3427 14.8535 37.4178 16.2173 37.9399C17.1406 38.2849 18.1168 38.4668 19.1023 38.4774C20.7756 38.5743 21.2164 38.5742 25.4203 38.5742C29.6605 38.5742 30.0995 38.5535 31.7365 38.4774C32.7225 38.4655 33.699 38.2837 34.6232 37.9399C35.2939 37.6794 35.903 37.2823 36.4119 36.7737C36.9208 36.2651 37.3183 35.6562 37.5791 34.9857C37.9248 34.0523 38.1063 33.0636 38.1167 32.0679H38.1357C38.21 30.4154 38.21 29.9746 38.21 25.7517C38.21 21.5288 38.191 21.0845 38.1167 19.4337C38.101 18.4492 37.9193 17.4745 37.5791 16.5505C37.3189 15.879 36.9216 15.2691 36.4127 14.7596C35.9038 14.2501 35.2944 13.8522 34.6232 13.5912C33.6984 13.2454 32.7218 13.0657 31.7365 13.0536C30.065 12.9585 29.6276 12.9585 25.4203 12.9585ZM25.479 33.7636C23.8984 33.7647 22.3529 33.2969 21.0381 32.4195C19.7234 31.5421 18.6983 30.2945 18.0926 28.8345C17.4869 27.3745 17.3278 25.7677 17.6355 24.2172C17.9431 22.6668 18.7036 21.2424 19.8208 20.1242C20.938 19.0061 22.3617 18.2443 23.9119 17.9354C25.4621 17.6264 27.069 17.7841 28.5296 18.3885C29.9901 18.9929 31.2386 20.0169 32.1171 21.331C32.9956 22.645 33.4647 24.19 33.4651 25.7707C33.4623 27.8885 32.6203 29.9189 31.1234 31.4171C29.6265 32.9153 27.5969 33.7591 25.479 33.7636ZM25.479 20.5815C24.4534 20.5815 23.4508 20.8857 22.598 21.4555C21.7452 22.0253 21.0806 22.8352 20.6881 23.7827C20.2956 24.7303 20.1929 25.773 20.393 26.7789C20.5931 27.7849 21.087 28.7089 21.8122 29.4341C22.5374 30.1593 23.4614 30.6532 24.4674 30.8533C25.4733 31.0534 26.516 30.9507 27.4635 30.5582C28.4111 30.1657 29.221 29.5011 29.7908 28.6483C30.3606 27.7955 30.6648 26.7929 30.6648 25.7672C30.6616 24.3929 30.1142 23.0757 29.1424 22.1039C28.1706 21.1321 26.8534 20.5847 25.479 20.5815ZM33.7762 19.349C33.5315 19.3481 33.2894 19.299 33.0636 19.2046C32.8379 19.1101 32.633 18.972 32.4606 18.7984C32.1124 18.4476 31.9179 17.9729 31.9197 17.4787C31.9216 16.9845 32.1196 16.5113 32.4704 16.1631C32.8211 15.815 33.2958 15.6204 33.79 15.6222C34.2842 15.6241 34.7575 15.8221 35.1056 16.1729C35.4538 16.5237 35.6484 16.9983 35.6465 17.4926C35.6447 17.9868 35.4466 18.46 35.0959 18.8082C34.7451 19.1563 34.2704 19.3509 33.7762 19.349Z" fill="black"/>
</g>
<defs>
<clipPath id="clip0_269_751">
<rect width="49.8106" height="49.8106" fill="white" transform="translate(0.582031 0.905273)"/>
</clipPath>
</defs>
</svg>
