<svg width="51" height="51" viewBox="0 0 51 51" fill="none" xmlns="http://www.w3.org/2000/svg">
<g clip-path="url(#clip0_269_747)">
<circle cx="25.3916" cy="25.7222" r="23.9714" stroke="black" stroke-width="1.8679"/>
<path d="M19.0419 39.6873C31.9316 39.6873 38.9827 29.0071 38.9827 19.7614C38.9827 19.4625 38.9827 19.1594 38.9699 18.8605C40.3427 17.8667 41.5275 16.6364 42.4688 15.2271C41.1865 15.7925 39.8276 16.1652 38.4362 16.3329C39.9018 15.4569 40.9995 14.0786 41.5253 12.4541C40.1483 13.2698 38.6412 13.8425 37.07 14.1469C36.0137 13.022 34.6159 12.2767 33.0931 12.0266C31.5703 11.7765 30.0076 12.0355 28.6469 12.7635C27.2862 13.4915 26.2036 14.6478 25.5667 16.0534C24.9298 17.459 24.7741 19.0354 25.1238 20.5384C22.3374 20.3987 19.6114 19.6749 17.1228 18.4138C14.6341 17.1527 12.4383 15.3826 10.6778 13.2183C9.78408 14.7619 9.51133 16.5878 9.91496 18.3253C10.3186 20.0627 11.3683 21.5813 12.851 22.5729C11.74 22.5351 10.6533 22.2368 9.67875 21.7019V21.798C9.68067 23.415 10.2409 24.9818 11.2646 26.2335C12.2884 27.4852 13.7129 28.345 15.2975 28.6676C14.696 28.8333 14.0747 28.9159 13.4509 28.9131C13.0111 28.9145 12.5722 28.8737 12.1401 28.7915C12.588 30.1835 13.46 31.4005 14.6341 32.2722C15.8081 33.1438 17.2255 33.6264 18.6875 33.6523C16.2038 35.6031 13.1358 36.6611 9.97762 36.656C9.42113 36.6583 8.86503 36.6262 8.3125 36.5599C11.5179 38.6034 15.2405 39.6885 19.0419 39.6873Z" fill="black"/>
</g>
<defs>
<clipPath id="clip0_269_747">
<rect width="49.8106" height="49.8106" fill="white" transform="translate(0.486328 0.905273)"/>
</clipPath>
</defs>
</svg>
